<svg xmlns="http://www.w3.org/2000/svg" width="320" height="320" fill="none" viewBox="0 0 320 320"><path fill="#0a0a0a" d="M0 0h320v320H0z"/><path fill="#34d399" d="M181.963 156.462v-21.953h-7.321a7.32 7.32 0 0 1-7.321-7.318 7.32 7.32 0 0 1 7.321-7.318h14.642l.75.036a7.32 7.32 0 0 1 6.57 7.282v29.271a21.964 21.964 0 0 1-21.962 21.953 7.32 7.32 0 0 1-7.321-7.317 7.32 7.32 0 0 1 7.321-7.318 7.324 7.324 0 0 0 7.321-7.318"/><path fill="#34d399" d="M225.888 105.238a7.321 7.321 0 0 0-7.321-7.318H101.433a7.32 7.32 0 0 0-7.321 7.318v114.054l12.497-12.492 1.609-1.458a21.97 21.97 0 0 1 13.919-4.973h96.43a7.323 7.323 0 0 0 7.321-7.318zm14.642 87.813a21.963 21.963 0 0 1-21.963 21.953h-96.43a7.33 7.33 0 0 0-5.176 2.144l-16.122 16.115a12.537 12.537 0 0 1-13.64 2.715 12.53 12.53 0 0 1-5.62-4.609 12.5 12.5 0 0 1-2.073-6.031l-.036-.922V105.238a21.965 21.965 0 0 1 21.963-21.953h117.134a21.963 21.963 0 0 1 21.963 21.953z"/><path fill="#34d399" d="M138.037 156.462v-21.953h-7.321a7.319 7.319 0 1 1 0-14.636h14.642l.751.036a7.32 7.32 0 0 1 6.57 7.282v29.271a21.95 21.95 0 0 1-6.434 15.522 21.97 21.97 0 0 1-15.529 6.431 7.318 7.318 0 1 1 0-14.635 7.318 7.318 0 0 0 7.321-7.318"/></svg>