<svg width="599" height="577" viewBox="0 0 599 577" fill="none" xmlns="http://www.w3.org/2000/svg">
<path d="M387.621 32.4071C388.845 26.8973 391.532 22.0368 395.216 18.6674C398.9 15.298 403.35 13.6318 407.794 13.9574C412.238 14.2831 416.397 16.58 419.551 20.4505C422.705 24.3209 424.654 29.5211 425.062 35.1504L435.19 171.56C435.909 181.258 438.919 190.351 443.829 197.651C448.738 204.952 455.319 210.122 462.711 212.485L566.69 245.758C570.983 247.119 574.712 250.363 577.232 254.93C579.752 259.497 580.904 265.098 580.489 270.764C580.074 276.43 578.118 281.803 574.959 285.954C571.8 290.105 567.638 292.771 563.193 293.491L455.475 311.253C447.816 312.514 440.553 316.669 434.632 323.176C428.71 329.683 424.407 338.24 422.282 347.729L392.379 481.206C391.155 486.716 388.468 491.576 384.784 494.945C381.1 498.315 376.65 499.981 372.206 499.655C367.762 499.33 363.603 497.033 360.449 493.162C357.295 489.292 355.346 484.092 354.938 478.462L344.81 342.053C344.091 332.355 341.081 323.262 336.171 315.961C331.262 308.661 324.681 303.491 317.289 301.128L213.31 267.855C209.017 266.494 205.288 263.25 202.768 258.683C200.248 254.116 199.095 248.515 199.511 242.849C199.926 237.183 201.882 231.81 205.041 227.659C208.2 223.508 212.362 220.842 216.807 220.122L324.525 202.36C332.184 201.099 339.447 196.944 345.368 190.437C351.29 183.93 355.593 175.373 357.718 165.884L387.621 32.4071Z" fill="#fff"/>
<path d="M100.32 263.313C99.6026 259.809 99.8401 256.334 100.991 253.489C102.142 250.645 104.133 248.609 106.621 247.736C109.108 246.863 111.935 247.207 114.612 248.708C117.288 250.209 119.646 252.773 121.276 255.956L160.916 333.027C163.734 338.507 167.64 343.086 172.126 346.166C176.612 349.246 181.469 350.685 186.063 350.294L250.686 344.813C253.351 344.579 256.182 345.578 258.69 347.636C261.198 349.695 263.224 352.683 264.418 356.085C265.612 359.486 265.898 363.085 265.227 366.259C264.557 369.434 262.971 371.983 260.745 373.466L206.877 409.582C203.046 412.149 200.154 416.308 198.578 421.516C197.002 426.724 196.815 432.74 198.041 438.779L215.274 523.716C215.991 527.219 215.754 530.694 214.603 533.539C213.452 536.384 211.461 538.419 208.973 539.292C206.486 540.166 203.659 539.822 200.982 538.321C198.306 536.82 195.948 534.255 194.318 531.072L154.678 454.001C151.86 448.522 147.954 443.943 143.468 440.863C138.982 437.783 134.125 436.344 129.531 436.735L64.9079 442.216C62.2434 442.45 59.4121 441.451 56.9043 439.392C54.3964 437.334 52.3701 434.345 51.1761 430.944C49.9821 427.543 49.6957 423.943 50.3665 420.769C51.0373 417.595 52.623 415.045 54.8491 413.562L108.717 377.446C112.548 374.88 115.44 370.721 117.016 365.513C118.592 360.304 118.779 354.288 117.553 348.25L100.32 263.313Z" fill="#fff"/>
</svg>
