<svg width="590" height="595" viewBox="0 0 590 595" fill="none" xmlns="http://www.w3.org/2000/svg">
<path d="M297.644 0.0020796C314.456 0.211677 331.003 4.22288 346.05 11.7288C361.102 19.2381 374.271 30.0554 384.559 43.3697C394.845 56.6819 401.988 72.1486 405.463 88.6126C408.929 105.042 408.623 122.04 404.618 138.345L404.645 138.372L385.72 216.365H508.927C521.514 216.365 533.934 219.29 545.192 224.922C556.45 230.555 566.251 238.748 573.803 248.825C581.349 258.896 586.437 270.591 588.689 282.975C590.659 293.815 590.405 304.939 587.95 315.646L586.763 320.215L523.787 536.578C518.875 553.431 508.63 568.25 494.595 578.783C480.562 589.313 463.491 595 445.951 595H81.082C59.5777 595 38.9603 586.446 23.7545 571.23C8.54867 556.014 0 535.383 0 513.864V297.501C0 275.982 8.54867 255.351 23.7545 240.135C38.9603 224.919 59.5777 216.365 81.082 216.365H155.671L159.419 216.101C163.122 215.579 166.696 214.284 169.897 212.298C174.165 209.648 177.611 205.863 179.848 201.363L179.901 201.284L273.124 14.951C277.759 5.6882 287.292 -0.126189 297.644 0.0020796ZM228.228 225.503L228.202 225.477C221.488 238.966 211.176 250.338 198.376 258.28C195.419 260.115 192.337 261.708 189.191 263.14V540.909H445.951C451.797 540.909 457.48 539.004 462.157 535.495C466.833 531.985 470.258 527.059 471.896 521.444L534.872 305.081L535.585 302.017C536.107 298.929 536.068 295.765 535.506 292.668C534.755 288.539 533.059 284.642 530.544 281.284C528.026 277.926 524.768 275.186 521.015 273.308C517.263 271.431 513.122 270.456 508.927 270.456H351.355C343.065 270.456 335.233 266.65 330.108 260.129C324.984 253.608 323.138 245.08 325.094 237.019L352.121 125.615L352.147 125.509C354.226 117.083 354.361 108.277 352.57 99.7847C350.778 91.2987 347.102 83.3257 341.801 76.4633C336.495 69.5966 329.689 64.0139 321.926 60.141C318.971 58.6672 315.886 57.5174 312.741 56.5755L228.228 225.503ZM54.0547 513.864C54.0547 521.037 56.9042 527.914 61.9729 532.986C67.0415 538.058 73.9139 540.909 81.082 540.909H135.137V270.456H81.082C73.9139 270.456 67.0415 273.307 61.9729 278.379C56.9042 283.451 54.0547 290.328 54.0547 297.501V513.864Z" fill="#fff"/>
</svg>
