<svg xmlns="http://www.w3.org/2000/svg" width="760" height="725" fill="none" viewBox="0 0 760 725"><path fill="#34d399" d="M483.636 345.306V241.714h-34.545c-19.079 0-34.546-15.46-34.546-34.531s15.467-34.53 34.546-34.53h69.091l3.542.169c17.415 1.772 31.003 16.486 31.003 34.361v138.123a103.56 103.56 0 0 1-30.362 73.242 103.65 103.65 0 0 1-73.274 30.35c-19.079 0-34.546-15.46-34.546-34.531s15.467-34.531 34.546-34.531a34.55 34.55 0 0 0 24.425-10.116 34.52 34.52 0 0 0 10.12-24.414"/><path fill="#34d399" d="M690.909 103.592a34.547 34.547 0 0 0-34.545-34.53H103.636a34.55 34.55 0 0 0-34.545 34.53v538.191l58.97-58.945 7.591-6.879a103.7 103.7 0 0 1 65.683-23.47h455.029c9.162 0 17.946-3.64 24.424-10.116a34.52 34.52 0 0 0 10.121-24.414zM760 517.959a103.56 103.56 0 0 1-30.362 73.242 103.65 103.65 0 0 1-73.274 30.349H201.335a34.56 34.56 0 0 0-24.424 10.117l-76.075 76.041a59.07 59.07 0 0 1-30.227 16.153 59.15 59.15 0 0 1-34.14-3.339 59.1 59.1 0 0 1-26.517-21.75A59.05 59.05 0 0 1 .17 670.311L0 665.961V103.592a103.56 103.56 0 0 1 30.362-73.243A103.65 103.65 0 0 1 103.636 0h552.728a103.65 103.65 0 0 1 73.274 30.35A103.56 103.56 0 0 1 760 103.591z"/><path fill="#34d399" d="M276.364 345.306V241.714h-34.546c-19.079 0-34.545-15.46-34.545-34.531s15.466-34.53 34.545-34.53h69.091l3.542.169c17.416 1.772 31.004 16.486 31.004 34.361v138.123a103.56 103.56 0 0 1-30.363 73.242 103.65 103.65 0 0 1-73.274 30.35c-19.079 0-34.545-15.46-34.545-34.531s15.466-34.531 34.545-34.531a34.55 34.55 0 0 0 34.546-34.53"/></svg>